<svg xmlns="http://www.w3.org/2000/svg" width="137" height="30" fill="none"><path fill="#fff" d="M9.314 25.163c-.65-1.607-1.105-3.145-1.367-4.615a23.798 23.798 0 0 1-.393-4.17v-.58c0-.194.011-.388.034-.582-.752-.09-1.327-.245-1.726-.461-.388-.228-.581-.507-.581-.838 0-.33.228-.603.683-.82.467-.216 1.105-.37 1.914-.461.183-1.117.422-2.125.718-3.025.296-.9.581-1.664.855-2.29.285-.638.53-1.128.734-1.47.206-.353.308-.541.308-.564l.633.205c-.046.137-.131.388-.257.752-.114.353-.25.826-.41 1.419a38.221 38.221 0 0 0-.461 2.102 33.17 33.17 0 0 0-.41 2.768h.034c.866 0 1.72.046 2.563.137.843.08 1.658.216 2.444.41a10.49 10.49 0 0 0 1.504-1.008 7.456 7.456 0 0 0 1.213-1.265c.353-.467.627-.968.82-1.504a4.923 4.923 0 0 0 .308-1.743c0-.854-.148-1.595-.444-2.222a5.34 5.34 0 0 0-1.145-1.606 5.787 5.787 0 0 0-1.555-1.11 10.133 10.133 0 0 0-1.726-.667 9.92 9.92 0 0 0-1.573-.325 8.964 8.964 0 0 0-1.179-.103c-1.105 0-2.113.103-3.025.308-.911.194-1.732.444-2.46.752-.719.296-1.345.62-1.88.974-.536.342-.98.667-1.334.974a7.908 7.908 0 0 0-1.076 1.06l-.513-.428a8.83 8.83 0 0 1 .325-.393c.205-.227.495-.495.871-.803.388-.319.86-.66 1.419-1.025a11.097 11.097 0 0 1 1.948-.991c.74-.308 1.567-.564 2.478-.77C8.528.98 9.542.879 10.647.879c.74 0 1.498.051 2.273.154a13.39 13.39 0 0 1 2.273.461c.74.217 1.441.496 2.102.838.66.341 1.236.757 1.726 1.247.49.49.877 1.06 1.162 1.71.285.649.427 1.383.427 2.204 0 .547-.108 1.093-.324 1.64a6.776 6.776 0 0 1-.923 1.607 9.249 9.249 0 0 1-1.436 1.487c-.558.467-1.179.894-1.863 1.281.764.274 1.47.61 2.12 1.009.649.387 1.207.848 1.674 1.384a5.883 5.883 0 0 1 1.094 1.794c.262.672.393 1.425.393 2.256 0 .889-.16 1.732-.478 2.53a7.763 7.763 0 0 1-1.35 2.204 9.897 9.897 0 0 1-2.051 1.812 13.11 13.11 0 0 1-2.632 1.384 16.04 16.04 0 0 1-3.076.854 17.954 17.954 0 0 1-3.35.308c-1.447 0-2.7-.17-3.76-.513-1.048-.33-1.92-.774-2.614-1.333C1.35 26.638.837 26 .496 25.282A5.41 5.41 0 0 1 0 23.026c0-.5.074-.974.222-1.418a4.533 4.533 0 0 1 1.675-2.256c.399-.296.849-.53 1.35-.7l.222.53c-.433.159-.797.398-1.094.717a4.521 4.521 0 0 0-.7 1.042c-.171.376-.296.758-.376 1.145a5.914 5.914 0 0 0-.103 1.009c0 .341.046.712.137 1.11.091.4.245.792.461 1.18.217.387.502.763.855 1.128.365.364.815.683 1.35.957.536.273 1.168.49 1.897.65.73.17 1.567.255 2.512.255.73 0 1.51-.08 2.341-.239a13.753 13.753 0 0 0 4.785-1.829 9.316 9.316 0 0 0 1.966-1.606 7.28 7.28 0 0 0 1.35-2.068c.342-.763.513-1.6.513-2.512 0-.82-.114-1.55-.342-2.187a5.483 5.483 0 0 0-.957-1.692 5.861 5.861 0 0 0-1.401-1.248 9.143 9.143 0 0 0-1.726-.889c-.844.365-1.732.656-2.666.872-.923.205-1.886.308-2.889.308a48.775 48.775 0 0 0-.068 2.563c0 1.094.057 2.239.17 3.435a56.65 56.65 0 0 0 .496 3.777l-.666.103Zm.102-10.579a11.459 11.459 0 0 0 1.949-.256c.706-.16 1.407-.388 2.102-.684a14.48 14.48 0 0 0-1.966-.342 15.44 15.44 0 0 0-1.88-.12H9.52c-.023.229-.04.462-.051.701-.012.228-.029.462-.052.701Zm-3.435-.632c0 .08.126.176.376.29.251.114.673.205 1.265.274l.068-.616c.023-.205.052-.404.086-.598-.65.091-1.111.205-1.384.342-.274.137-.41.24-.41.308Zm22.44 11.809c-.582 0-1.14-.103-1.675-.308a4.02 4.02 0 0 1-1.419-.923c-.399-.421-.718-.945-.957-1.572-.24-.627-.359-1.361-.359-2.205 0-1.025.148-1.936.445-2.734.296-.809.672-1.487 1.128-2.034.467-.558.985-.98 1.555-1.264.57-.296 1.128-.445 1.675-.445.706 0 1.264.234 1.674.701.422.467.633 1.071.633 1.812 0 .638-.12 1.219-.36 1.743-.238.512-.558.957-.956 1.333-.388.364-.838.65-1.35.854a4.113 4.113 0 0 1-1.573.308c-.262 0-.512-.012-.752-.034a17.245 17.245 0 0 1-.615-.103c.069.706.205 1.316.41 1.829.205.512.462.934.77 1.264.307.33.649.576 1.025.735.387.16.786.24 1.196.24.513 0 .985-.126 1.418-.377.433-.25.832-.575 1.197-.974.364-.41.695-.877.991-1.4.308-.525.581-1.055.82-1.59.24-.547.45-1.077.633-1.59l.512-1.384.667.171c-.148.376-.325.832-.53 1.367-.194.536-.422 1.1-.684 1.692-.262.581-.57 1.168-.922 1.76a9.222 9.222 0 0 1-1.197 1.573 5.931 5.931 0 0 1-1.52 1.128c-.559.284-1.186.427-1.88.427Zm.427-10.818c-.422 0-.838.137-1.248.41-.399.262-.758.627-1.077 1.094a6.391 6.391 0 0 0-.786 1.658 7.025 7.025 0 0 0-.29 2.05c.148.057.353.108.615.154.273.034.604.051.991.051.41 0 .815-.085 1.214-.256.41-.182.774-.427 1.093-.735.33-.319.593-.695.787-1.128a3.27 3.27 0 0 0 .307-1.418c0-.25-.034-.49-.102-.718a1.751 1.751 0 0 0-.308-.598 1.512 1.512 0 0 0-.513-.41 1.44 1.44 0 0 0-.683-.154Zm18.799 2.871a48.9 48.9 0 0 1-1.282 3.179c-.376.854-.747 1.544-1.111 2.068-.353.524-.706.9-1.06 1.128-.353.227-.74.341-1.162.341-.512 0-.951-.176-1.316-.53-.364-.364-.592-.922-.683-1.674-.365.786-.838 1.43-1.419 1.93-.58.49-1.31.736-2.187.736-.467 0-.917-.086-1.35-.257a3.161 3.161 0 0 1-1.128-.786c-.33-.364-.598-.82-.803-1.367-.194-.547-.291-1.19-.291-1.931 0-.752.091-1.459.273-2.12.194-.66.445-1.264.752-1.81a7.584 7.584 0 0 1 1.06-1.488c.41-.433.832-.797 1.265-1.093a5.952 5.952 0 0 1 1.298-.684c.433-.16.832-.24 1.197-.24.319 0 .626.04.923.12.296.08.558.211.786.393.239.171.427.405.564.701.148.296.222.667.222 1.111 0 .524-.103.98-.308 1.367a3.327 3.327 0 0 1-.718.974 3.934 3.934 0 0 1-.854.633 6.22 6.22 0 0 1-.684.341l-.205-.666c.034 0 .16-.046.376-.137a2.55 2.55 0 0 0 .7-.444c.252-.217.48-.49.684-.82.206-.33.308-.735.308-1.214 0-.547-.154-.962-.461-1.247-.308-.297-.701-.445-1.18-.445-.364 0-.791.131-1.281.393-.49.262-.963.673-1.419 1.23-.444.56-.826 1.265-1.145 2.12-.307.854-.461 1.874-.461 3.06 0 1.173.205 2.067.615 2.682.422.615.986.923 1.692.923.353 0 .69-.097 1.008-.29.33-.206.633-.473.906-.804.273-.33.518-.712.735-1.145.216-.444.404-.9.564-1.367 0-.364.04-.792.12-1.282a9.747 9.747 0 0 1 .41-1.52l1.042.341a4.684 4.684 0 0 0-.17.581c-.058.24-.115.502-.172.786-.045.285-.085.581-.12.889a7.618 7.618 0 0 0-.05.872c0 .888.085 1.503.256 1.845.182.33.49.496.923.496.25 0 .495-.091.735-.274.25-.182.518-.5.803-.957.285-.455.598-1.07.94-1.845a71.5 71.5 0 0 0 1.196-2.974l.667.171Zm-.65-.17c.171-.445.353-.867.547-1.266a7.27 7.27 0 0 1 .65-1.076c.227-.308.472-.553.734-.735.274-.194.576-.29.906-.29.16 0 .342.034.547.102.205.068.399.205.58.41.195.205.354.501.48.889.125.387.187.9.187 1.538 0 .33-.017.695-.05 1.094l-.103 1.179c.353-.752.7-1.384 1.042-1.897.353-.524.695-.94 1.025-1.248.342-.319.678-.547 1.009-.683.33-.149.66-.223.991-.223.148 0 .319.035.513.103.205.068.393.188.564.359.182.17.33.404.444.7.125.297.188.678.188 1.146 0 .376-.029.752-.085 1.128-.057.376-.12.74-.188 1.093-.069.354-.132.69-.188 1.009a4.559 4.559 0 0 0-.086.82c0 .57.103 1.008.308 1.316.205.296.518.444.94.444.342 0 .666-.125.974-.376.307-.262.592-.592.854-.991.274-.399.519-.837.735-1.316.228-.479.422-.934.581-1.367.171-.445.314-.832.427-1.162.114-.342.194-.576.24-.7l.666.17c-.16.399-.33.843-.513 1.333a21.416 21.416 0 0 1-1.281 2.888c-.25.456-.53.86-.838 1.213a4.15 4.15 0 0 1-1.008.855 2.212 2.212 0 0 1-1.18.325c-.364 0-.683-.069-.956-.205a2.176 2.176 0 0 1-.667-.581 2.482 2.482 0 0 1-.41-.855 3.967 3.967 0 0 1-.136-1.06c0-.421.034-.854.102-1.298.08-.445.16-.872.24-1.282.09-.41.17-.786.239-1.128.08-.353.12-.644.12-.871 0-.354-.07-.616-.206-.787a.666.666 0 0 0-.564-.273c-.33 0-.655.12-.974.359-.308.239-.61.558-.906.957a10.84 10.84 0 0 0-.82 1.367 22.568 22.568 0 0 0-.735 1.59c-.216.535-.422 1.07-.615 1.606-.182.535-.342 1.02-.479 1.452-.136.433-.256.804-.359 1.111a7.483 7.483 0 0 1-.188.564l-.99-.17c.136-.673.261-1.38.375-2.12.114-.752.211-1.487.29-2.204.092-.73.16-1.425.206-2.085.057-.661.085-1.248.085-1.76 0-.696-.045-1.163-.137-1.402-.09-.25-.256-.376-.495-.376a.87.87 0 0 0-.581.24 2.37 2.37 0 0 0-.513.614c-.148.251-.296.547-.444.89-.148.341-.29.706-.427 1.093l-.667-.17ZM72.922 8.26c0 .638.131 1.213.393 1.726a5.28 5.28 0 0 0 1.06 1.384c.444.41.963.792 1.555 1.145.604.342 1.242.678 1.914 1.008.672.32 1.362.638 2.068.957.718.308 1.413.639 2.085.992a16.32 16.32 0 0 1 1.897 1.128 7.905 7.905 0 0 1 1.572 1.35 5.88 5.88 0 0 1 1.06 1.657c.262.604.393 1.288.393 2.051 0 1.39-.262 2.598-.786 3.623a7.282 7.282 0 0 1-2.102 2.512c-.878.673-1.897 1.168-3.06 1.487-1.161.33-2.375.496-3.64.496-1.116 0-2.17-.148-3.161-.445-.991-.284-1.863-.689-2.615-1.213a6.067 6.067 0 0 1-1.794-1.863 4.481 4.481 0 0 1-.65-2.358c0-.752.114-1.39.342-1.914.24-.536.496-.974.77-1.316.284-.342.552-.592.802-.752.251-.16.393-.245.428-.256l.376.803a6.195 6.195 0 0 0-.325.222c-.194.125-.405.325-.632.598a5 5 0 0 0-.616 1.06c-.182.421-.273.94-.273 1.555s.114 1.168.342 1.658c.239.478.552.9.94 1.264.398.365.848.678 1.35.94a9.06 9.06 0 0 0 1.59.633c.546.17 1.093.29 1.64.358.547.08 1.054.12 1.52.12 1.208 0 2.302-.154 3.282-.461.98-.297 1.811-.712 2.495-1.248.695-.524 1.23-1.133 1.607-1.828a4.765 4.765 0 0 0 .564-2.273c0-.912-.194-1.698-.582-2.359a6.19 6.19 0 0 0-1.538-1.743 11.511 11.511 0 0 0-2.187-1.367c-.81-.41-1.64-.81-2.495-1.197a63.01 63.01 0 0 1-2.495-1.213 11.566 11.566 0 0 1-2.17-1.487 6.774 6.774 0 0 1-1.539-1.93c-.387-.741-.58-1.619-.58-2.633 0-1.128.187-2.159.563-3.093a7.482 7.482 0 0 1 1.572-2.41 6.908 6.908 0 0 1 2.359-1.572 7.505 7.505 0 0 1 2.922-.564c1.06 0 1.988.125 2.786.376.797.24 1.464.581 2 1.026.546.432.95.957 1.213 1.572.273.615.41 1.293.41 2.033 0 .604-.074 1.197-.222 1.778-.137.57-.29 1.082-.462 1.538-.17.456-.33.826-.478 1.11a7.843 7.843 0 0 0-.24.48l-.769-.428c0-.011.063-.148.188-.41a9.68 9.68 0 0 0 .445-1.026c.16-.421.302-.894.427-1.418a6.539 6.539 0 0 0 .205-1.624 4 4 0 0 0-.342-1.674 3.196 3.196 0 0 0-1.008-1.3c-.456-.352-1.031-.626-1.726-.82-.695-.193-1.515-.29-2.461-.29-.877 0-1.692.148-2.444.444A5.881 5.881 0 0 0 74.7 4.074a5.83 5.83 0 0 0-1.3 1.863 5.581 5.581 0 0 0-.478 2.324ZM94.2 17.113c0-.683.16-1.276.479-1.777a7.75 7.75 0 0 1 1.264-1.453 1.71 1.71 0 0 0-.512-.222 1.775 1.775 0 0 0-.53-.085c-.376 0-.78.096-1.214.29-.421.183-.814.496-1.179.94-.353.445-.65 1.043-.888 1.795-.24.74-.36 1.669-.36 2.785 0 .923.109 1.715.326 2.376.227.66.535 1.207.922 1.64.388.422.838.735 1.35.94.513.194 1.06.29 1.641.29.695 0 1.316-.176 1.863-.529.547-.365 1.048-.86 1.504-1.487.456-.638.877-1.378 1.264-2.221.399-.855.792-1.772 1.18-2.752l.649.171a143.77 143.77 0 0 1-.718 1.726 22.06 22.06 0 0 1-.803 1.76c-.285.57-.604 1.111-.957 1.624-.342.512-.74.963-1.196 1.35a5.343 5.343 0 0 1-1.504.923c-.558.228-1.185.342-1.88.342a5.952 5.952 0 0 1-2.017-.342 4.8 4.8 0 0 1-1.657-1.06c-.479-.478-.86-1.076-1.145-1.794-.285-.718-.428-1.561-.428-2.53 0-.98.16-1.89.479-2.734.33-.843.746-1.572 1.247-2.187.502-.616 1.054-1.1 1.658-1.453.604-.353 1.18-.53 1.726-.53.638 0 1.208.165 1.71.496.09-.069.176-.137.255-.205a5.63 5.63 0 0 0 .274-.257l.376.53a3.043 3.043 0 0 1-.205.188c-.069.057-.137.12-.205.188.205.25.37.547.495.889.137.342.206.723.206 1.145 0 .467-.057.883-.171 1.247-.103.354-.251.655-.445.906-.182.25-.393.439-.632.564a1.6 1.6 0 0 1-.752.188c-.137 0-.29-.028-.462-.085a1.736 1.736 0 0 1-.478-.29 1.76 1.76 0 0 1-.376-.514 1.826 1.826 0 0 1-.154-.786Zm2.769-1.23c0-.33-.052-.627-.154-.889a2.203 2.203 0 0 0-.376-.684 6.23 6.23 0 0 0-1.094 1.231c-.296.444-.444.968-.444 1.572 0 .32.08.57.24.752.159.171.347.257.563.257.25 0 .456-.08.615-.24.171-.16.302-.353.393-.58.092-.24.154-.485.188-.736a4.06 4.06 0 0 0 .069-.683Zm8.083 9.878a4.646 4.646 0 0 1-1.675-.308 4.02 4.02 0 0 1-1.418-.923c-.399-.421-.718-.945-.957-1.572-.239-.627-.359-1.361-.359-2.205 0-1.025.148-1.936.444-2.734.297-.809.673-1.487 1.128-2.034.467-.558.986-.98 1.556-1.264.569-.296 1.127-.445 1.674-.445.707 0 1.265.234 1.675.701.422.467.632 1.071.632 1.812 0 .638-.119 1.219-.358 1.743-.24.512-.559.957-.957 1.333a4.26 4.26 0 0 1-1.351.854 4.11 4.11 0 0 1-1.572.308 7.93 7.93 0 0 1-.752-.034 17.07 17.07 0 0 1-.615-.103c.068.706.205 1.316.41 1.829.205.512.462.934.769 1.264.308.33.65.576 1.026.735.387.16.786.24 1.196.24.513 0 .985-.126 1.418-.377.433-.25.832-.575 1.197-.974.364-.41.695-.877.991-1.4a16.25 16.25 0 0 0 .82-1.59c.239-.547.45-1.077.632-1.59l.513-1.384.667.171c-.148.376-.325.832-.53 1.367-.194.536-.422 1.1-.684 1.692a17.282 17.282 0 0 1-.923 1.76 9.226 9.226 0 0 1-1.196 1.573 5.92 5.92 0 0 1-1.521 1.128c-.558.284-1.185.427-1.88.427Zm.428-10.818c-.422 0-.838.137-1.248.41-.399.262-.758.627-1.077 1.094a6.388 6.388 0 0 0-.786 1.658 7.015 7.015 0 0 0-.29 2.05c.148.057.353.108.615.154.273.034.604.051.991.051.41 0 .815-.085 1.213-.256a3.755 3.755 0 0 0 1.094-.735c.331-.319.593-.695.786-1.128.205-.433.308-.906.308-1.418 0-.25-.034-.49-.103-.718a1.74 1.74 0 0 0-.307-.598 1.517 1.517 0 0 0-.513-.41 1.439 1.439 0 0 0-.683-.154Zm5.639 2.7c.171-.444.353-.866.547-1.265.205-.41.422-.769.649-1.076.228-.308.473-.553.735-.735.274-.194.576-.29.906-.29.16 0 .342.034.547.102.205.068.399.205.581.41.194.205.353.501.479.889.125.387.188.9.188 1.538 0 .33-.018.695-.052 1.094l-.102 1.179c.353-.752.7-1.384 1.042-1.897.353-.524.695-.94 1.026-1.248.341-.319.677-.547 1.008-.683.33-.149.661-.223.991-.223.148 0 .319.035.513.103.205.068.393.188.564.359.182.17.33.404.444.7.125.297.188.678.188 1.146 0 .376-.028.752-.085 1.128-.057.376-.12.74-.188 1.093-.069.354-.131.69-.188 1.009a4.564 4.564 0 0 0-.086.82c0 .57.103 1.008.308 1.316.205.296.518.444.94.444.342 0 .666-.125.974-.376.307-.262.592-.592.854-.991a8.47 8.47 0 0 0 .735-1.316c.228-.479.422-.934.581-1.367.171-.445.314-.832.428-1.162.113-.342.193-.576.239-.7l.666.17c-.159.399-.33.843-.512 1.333a21.732 21.732 0 0 1-1.282 2.888c-.251.456-.53.86-.838 1.213a4.127 4.127 0 0 1-1.008.855 2.21 2.21 0 0 1-1.179.325c-.365 0-.684-.069-.957-.205a2.186 2.186 0 0 1-.667-.581 2.485 2.485 0 0 1-.41-.855 3.976 3.976 0 0 1-.136-1.06c0-.421.034-.854.102-1.298.08-.445.16-.872.239-1.282.091-.41.171-.786.24-1.128.079-.353.119-.644.119-.871 0-.354-.068-.616-.205-.787a.667.667 0 0 0-.564-.273c-.33 0-.655.12-.974.359-.308.239-.609.558-.906.957-.285.399-.558.854-.82 1.367a22.614 22.614 0 0 0-.735 1.59c-.216.535-.421 1.07-.615 1.606-.182.535-.342 1.02-.479 1.452-.136.433-.256.804-.359 1.111a7.714 7.714 0 0 1-.187.564l-.992-.17c.137-.673.262-1.38.376-2.12.114-.752.211-1.487.291-2.204.091-.73.159-1.425.205-2.085.057-.661.085-1.248.085-1.76 0-.696-.045-1.163-.136-1.402-.092-.25-.257-.376-.496-.376a.87.87 0 0 0-.581.24 2.386 2.386 0 0 0-.513.614c-.148.251-.296.547-.444.89a16.55 16.55 0 0 0-.427 1.093l-.667-.17Zm18.508 8.118a4.637 4.637 0 0 1-1.674-.308 4.015 4.015 0 0 1-1.419-.923c-.399-.421-.718-.945-.957-1.572-.239-.627-.359-1.361-.359-2.205 0-1.025.148-1.936.445-2.734.296-.809.672-1.487 1.128-2.034.467-.558.985-.98 1.555-1.264.569-.296 1.128-.445 1.675-.445.706 0 1.264.234 1.674.701.422.467.633 1.071.633 1.812 0 .638-.12 1.219-.359 1.743a4.318 4.318 0 0 1-.957 1.333c-.388.364-.838.65-1.35.854a4.119 4.119 0 0 1-1.573.308c-.262 0-.512-.012-.752-.034a17.451 17.451 0 0 1-.615-.103c.069.706.205 1.316.41 1.829.205.512.462.934.769 1.264.308.33.65.576 1.026.735.387.16.786.24 1.196.24.513 0 .986-.126 1.419-.377.432-.25.831-.575 1.196-.974.364-.41.695-.877.991-1.4.308-.525.581-1.055.82-1.59.24-.547.45-1.077.633-1.59l.512-1.384.667.171c-.148.376-.325.832-.53 1.367-.194.536-.421 1.1-.684 1.692a17.471 17.471 0 0 1-.922 1.76 9.23 9.23 0 0 1-1.197 1.573 5.92 5.92 0 0 1-1.521 1.128c-.558.284-1.185.427-1.88.427Zm.428-10.818c-.422 0-.838.137-1.248.41-.399.262-.757.627-1.077 1.094a6.388 6.388 0 0 0-.786 1.658 7.049 7.049 0 0 0-.29 2.05c.148.057.353.108.615.154.274.034.604.051.991.051.41 0 .815-.085 1.214-.256.41-.182.774-.427 1.093-.735.331-.319.593-.695.787-1.128.205-.433.307-.906.307-1.418 0-.25-.034-.49-.102-.718a1.759 1.759 0 0 0-.308-.598 1.517 1.517 0 0 0-.513-.41 1.436 1.436 0 0 0-.683-.154Z"/></svg>